<svg width="1006" height="260" viewBox="0 0 1006 260" fill="none" xmlns="http://www.w3.org/2000/svg">
<g clip-path="url(#clip0_49_2737)">
<path d="M758.869 164.853C758.869 189.362 721.675 189.362 721.675 164.853C721.675 140.632 758.869 140.632 758.869 164.853Z" fill="#FF7A04"/>
<path d="M57.0905 31.9321H0V1.08106H148.2V31.9321H91.1095V181.282H57.0905V31.9321ZM158.579 128.809C160.598 144.382 174.152 155.911 196.348 155.911C208.728 156.112 220.78 151.924 230.367 144.088L250.551 163.985C235.726 177.612 216.191 184.951 196.061 184.456C151.949 184.456 125.997 157.355 125.997 116.719C125.997 78.0821 152.237 50.4058 193.467 50.4058C235.854 50.4058 262.374 76.6453 257.475 128.83L158.579 128.809ZM227.486 102.857C225.468 86.4363 212.495 78.0616 194.644 78.0616C186.781 77.4747 178.957 79.6221 172.495 84.1404C166.033 88.6588 161.33 95.2706 159.182 102.857H227.486ZM364.732 87.8663C360.501 84.0027 355.543 81.0192 350.148 79.0892C344.753 77.1593 339.028 76.3216 333.306 76.6247C318.315 76.6247 310.242 81.2363 310.242 89.31C310.242 97.671 317.768 102.31 333.881 103.152C357.828 104.595 388.084 110.069 388.084 143.807C388.084 166.297 369.918 185.613 333.594 185.613C322.718 186.337 311.816 184.673 301.651 180.738C291.486 176.803 282.305 170.693 274.752 162.835L290.324 140.345C299.26 150.437 320.019 157.936 334.148 158.224C345.971 158.511 356.925 152.168 356.925 142.945C356.925 134.297 349.721 130.547 331.842 129.685C307.895 127.954 279.37 119.018 279.37 90.1858C279.37 60.7647 309.646 50.6863 332.998 50.6863C341.915 50.063 350.867 51.2205 359.331 54.0915C367.796 56.9624 375.605 61.4893 382.303 67.4084L364.712 87.88L364.732 87.8663ZM452.379 18.3779V54.4153H487.274V81.5237H452.092V136.308C452.092 148.419 458.722 154.187 468.513 154.187C473.819 154.073 479.036 152.793 483.792 150.437L492.44 177.252C484.194 180.638 475.399 182.492 466.488 182.725C438.812 183.882 420.933 168.022 420.933 136.302V81.5237H397.314V54.4221H420.954V21.84L452.379 18.3779ZM542.914 54.4153V120.729C542.914 140.044 553.581 154.748 573.478 154.748C592.793 154.748 605.773 138.601 605.773 119.285V54.4221H636.911V181.282H608.947L606.895 163.985C601.533 170.071 594.916 174.924 587.5 178.208C580.083 181.493 572.044 183.132 563.933 183.013C533.657 183.013 511.461 160.235 511.461 120.749V54.4221H542.887L542.914 54.4153ZM695.726 53.8405V208.39C695.726 239.816 682.172 260 653.633 260C643.698 259.955 633.986 257.045 625.663 251.618L636.904 227.11C641.625 229.53 646.88 230.72 652.183 230.572C662.562 229.997 664.868 222.211 664.868 208.082V53.8474H695.719L695.726 53.8405ZM661.707 18.3779C661.707 42.8863 698.901 42.8863 698.901 18.3779C698.901 -6.13052 661.707 -6.13052 661.707 18.3779ZM809.038 18.3779V54.4153H843.933V81.5237H808.737V136.308C808.737 148.419 815.367 154.187 825.158 154.187C830.464 154.073 835.68 152.793 840.436 150.437L849.105 177.245C840.859 180.631 832.065 182.486 823.153 182.718C795.785 183.875 777.598 168.015 777.598 136.295V81.5237H754V54.4221H777.639V21.84L809.038 18.3779ZM929.555 144.375C927.915 144.385 926.298 143.996 924.842 143.243C923.385 142.49 922.134 141.394 921.194 140.051L903.603 116.986C901.845 114.738 901.015 111.901 901.284 109.06C901.552 106.218 902.899 103.588 905.046 101.708C906.941 100.228 909.272 99.4175 911.676 99.4021C913.321 99.3605 914.95 99.735 916.412 100.491C917.874 101.247 919.121 102.36 920.037 103.726L928.686 115.262L986.351 32.8011C987.194 31.4966 988.346 30.4197 989.704 29.6656C991.062 28.9114 992.584 28.5032 994.137 28.4768C995.36 28.4433 996.577 28.6555 997.715 29.1009C998.854 29.5464 999.892 30.216 1000.77 31.07C1002.8 33.0615 1004.11 35.681 1004.48 38.5062C1004.84 41.3314 1004.25 44.1976 1002.79 46.6426L938.47 139.483C937.564 140.903 936.333 142.088 934.88 142.94C933.426 143.792 931.791 144.286 930.109 144.382L929.555 144.375Z" fill="#30A9D4"/>
<path d="M961.562 113.818C961.562 115.261 961.849 116.411 961.849 117.855C961.849 137.17 950.314 155.048 927.249 155.048C904.472 155.048 892.648 137.17 892.648 117.855C892.648 98.8266 904.472 80.3735 927.249 80.3735C933.24 80.2784 939.136 81.8769 944.258 84.9851L961.268 60.4766C950.676 54.6516 938.754 51.6719 926.667 51.8282C917.93 51.5323 909.226 53.04 901.097 56.2572C892.968 59.4744 885.589 64.3321 879.421 70.5273C873.253 76.7224 868.427 84.1222 865.246 92.2649C862.064 100.408 860.594 109.119 860.928 117.855C860.928 154.473 885.724 183.881 926.667 183.881C935.437 184.25 944.187 182.795 952.365 179.608C960.543 176.421 967.97 171.57 974.177 165.364C980.383 159.158 985.234 151.73 988.421 143.552C991.608 135.374 993.063 126.624 992.694 117.855C992.807 105.168 989.414 92.6973 982.889 81.8172L961.562 113.818Z" fill="#FF7A04"/>
</g>
<defs>
<clipPath id="clip0_49_2737">
<rect width="1005.79" height="260" fill="white"/>
</clipPath>
</defs>
</svg>
