<?xml version="1.0" encoding="utf-8"?>
<!-- Generator: Adobe Illustrator 24.1.1, SVG Export Plug-In . SVG Version: 6.00 Build 0)  -->
<svg version="1.1" id="Vrstva_1" xmlns="http://www.w3.org/2000/svg" xmlns:xlink="http://www.w3.org/1999/xlink" x="0px" y="0px"
	 viewBox="0 0 320.1 92.5" style="enable-background:new 0 0 320.1 92.5;" xml:space="preserve">
<style type="text/css">
	.st0{fill:#003265;}
	.st1{fill:#FFDD00;}
	.st2{fill:#FBAE17;}
	.st3{fill:#F48120;}
	.st4{display:none;}
</style>
<g id="ACW_logo_1_">
	<g id="ACW_logo_3_">
		<polygon class="st0" points="301.8,52.9 301.8,46.4 288,46.4 288,41 299.9,41 299.9,34.3 288,34.3 288,28.9 301.8,28.9 
			301.8,22.3 280.8,22.3 280.8,52.9 		"/>
		<path class="st0" d="M270.8,43.3c0,0,6-1.8,6-9.3c0-12-12.4-11.8-12.4-11.8h-11.7v30.6h7.2v-8h3.5l5.5,8h8.7L270.8,43.3z
			 M263.6,38.8H260v-9.7l4.9,0c0,0,4.2,0.1,4.2,4.7C269,38.8,263.6,38.8,263.6,38.8"/>
		<polygon class="st0" points="250.8,52.9 243.6,52.9 234.9,33.5 226.2,52.9 219,52.9 231.3,25.4 232.7,22.3 237.1,22.3 238.5,25.4 
					"/>
		<polygon class="st0" points="182.8,22.3 190.3,22.3 195.5,38.4 201.6,22.3 206.2,22.3 212.7,38.4 218.1,22.3 225.1,22.3 
			215.7,52.9 210.1,52.9 203.9,33.5 198.1,52.9 192.7,52.9 		"/>
		<polygon class="st0" points="180,52.9 180,22.3 175.3,22.3 163.6,41.5 152.3,22.3 147.5,22.3 147.5,52.9 154.1,52.9 154.1,37.8 
			161.3,49.8 165.8,49.8 173.3,37.8 173.3,52.9 		"/>
		<path class="st0" d="M129,22.3c-8.5,0-15.3,6.9-15.3,15.3s6.9,15.3,15.3,15.3s15.3-6.9,15.3-15.3S137.4,22.3,129,22.3 M129,46.2
			c-4.8,0-8.6-3.9-8.6-8.6s3.9-8.6,8.6-8.6c4.8,0,8.6,3.9,8.6,8.6C137.6,42.3,133.7,46.2,129,46.2"/>
		<path class="st0" d="M109.9,43.2c-1.6,1.8-3.9,3-6.5,3c-4.8,0-8.6-3.9-8.6-8.6s3.9-8.6,8.6-8.6c2.8,0,5.2,1.3,6.8,3.3l3.4-6.1
			c-2.7-2.4-6.3-3.9-10.2-3.9c-8.5,0-15.3,6.9-15.3,15.3s6.9,15.3,15.3,15.3c3.9,0,7.5-1.5,10.2-3.9L109.9,43.2z"/>
		<g>
			<polygon class="st1" points="50.1,52.9 42.9,52.9 34.2,33.5 25.5,52.9 18.3,52.9 30.6,25.4 32,22.3 36.4,22.3 37.8,25.4 			"/>
			<polygon class="st2" points="63.5,52.9 56.3,52.9 47.6,33.5 39,52.9 31.8,52.9 44,25.4 45.5,22.3 49.8,22.3 51.3,25.4 			"/>
			<polygon class="st3" points="77,52.9 69.8,52.9 61.1,33.5 52.4,52.9 45.2,52.9 57.5,25.4 58.9,22.3 63.3,22.3 64.7,25.4 			"/>
			<polygon class="st0" points="90.4,52.9 83.2,52.9 74.5,33.5 65.8,52.9 58.6,52.9 70.9,25.4 72.3,22.3 76.7,22.3 78.1,25.4 			"/>
		</g>
	</g>
	<g id="CLAIM_1_">
		<g>
			<path class="st0" d="M89.1,65.2v8.2h-0.9v-1.3C87.8,73,87,73.5,86,73.5c-1.7,0-2.8-1.2-2.8-3c0-1.7,1.2-3,2.8-3
				c1,0,1.8,0.5,2.3,1.3v-3.7L89.1,65.2L89.1,65.2z M88.3,70.5c0-1.3-0.9-2.2-2.1-2.2c-1.2,0-2.1,0.9-2.1,2.2s0.9,2.2,2.1,2.2
				C87.4,72.7,88.3,71.8,88.3,70.5z"/>
			<path class="st0" d="M92.3,65.9c0,0.3-0.2,0.6-0.6,0.6c-0.3,0-0.6-0.3-0.6-0.6s0.2-0.6,0.6-0.6C92,65.3,92.3,65.6,92.3,65.9z
				 M92.1,67.6v5.8h-0.8v-5.8H92.1z"/>
			<path class="st0" d="M99.3,67.6v5.2c0,1.7-1.2,2.8-2.9,2.8c-0.9,0-1.7-0.3-2.4-0.9l0.4-0.6c0.6,0.5,1.2,0.7,2,0.7
				c1.3,0,2.1-0.8,2.1-2v-0.9c-0.4,0.8-1.2,1.2-2.2,1.2c-1.6,0-2.7-1.2-2.7-2.8c0-1.6,1.1-2.8,2.6-2.8c1,0,1.8,0.4,2.2,1.2v-1.2
				L99.3,67.6L99.3,67.6z M98.5,70.4c0-1.2-0.8-2.1-2-2.1c-1.2,0-2,0.9-2,2.1c0,1.2,0.8,2.1,2,2.1C97.6,72.4,98.5,71.6,98.5,70.4z"
				/>
			<path class="st0" d="M102.3,65.9c0,0.3-0.2,0.6-0.6,0.6c-0.3,0-0.6-0.3-0.6-0.6s0.2-0.6,0.6-0.6C102,65.3,102.3,65.6,102.3,65.9z
				 M102.2,67.6v5.8h-0.8v-5.8H102.2z"/>
			<path class="st0" d="M107.3,73c-0.4,0.3-0.8,0.4-1.3,0.4c-0.8,0-1.5-0.5-1.5-1.7v-3.4h-0.8v-0.7h0.8v-1.5h0.8v1.5h1.8v0.7h-1.8
				v3.2c0,0.7,0.3,1,0.8,1c0.3,0,0.6-0.1,0.9-0.3L107.3,73z"/>
			<path class="st0" d="M112.2,73.4v-0.9c-0.5,0.6-1.2,0.9-2.1,0.9c-1.2,0-2-0.8-2-1.8c0-1,0.8-1.7,2.2-1.7h1.9v-0.4
				c0-0.9-0.5-1.4-1.6-1.4c-0.6,0-1.2,0.2-1.8,0.7l-0.4-0.6c0.8-0.5,1.4-0.8,2.4-0.8c1.4,0,2.2,0.8,2.3,2l0,3.9L112.2,73.4
				L112.2,73.4z M112.2,71.4v-0.7h-1.8c-1,0-1.5,0.3-1.5,1c0,0.6,0.5,1.1,1.3,1.1C111.2,72.7,112,72.2,112.2,71.4z M110.9,66.6h-0.8
				l1.3-1.5l0.9,0.4L110.9,66.6z"/>
			<path class="st0" d="M115.9,65.2v8.2H115v-8.2H115.9z"/>
			<path class="st0" d="M123.4,69.8v3.6h-0.9V70c0-1-0.6-1.7-1.7-1.7c-1.2,0-1.9,0.8-2,1.9v3.1h-0.9v-5.8h0.9v1.3
				c0.4-0.9,1.2-1.3,2.3-1.3C122.6,67.6,123.4,68.4,123.4,69.8z"/>
			<path class="st0" d="M127.4,65.5l-1.4,1.1h-0.8l1.3-1.5L127.4,65.5z M126.2,67.6v5.8h-0.8v-5.8H126.2z"/>
			<path class="st0" d="M141.3,69.8v3.6h-0.9V70c0-1.1-0.6-1.7-1.6-1.7c-1.2,0-1.9,0.9-1.9,2.2v2.9H136V70c0-1.1-0.6-1.7-1.6-1.7
				c-1.2,0-1.9,0.9-1.9,2.2v2.9h-0.9v-5.8h0.9v1.3c0.4-0.9,1.2-1.3,2.2-1.3c1.1,0,1.9,0.6,2.1,1.5c0.4-1,1.2-1.5,2.3-1.5
				C140.5,67.6,141.3,68.4,141.3,69.8z"/>
			<path class="st0" d="M146.8,73.4v-0.9c-0.5,0.6-1.2,0.9-2.1,0.9c-1.2,0-2-0.8-2-1.8c0-1,0.8-1.7,2.2-1.7h1.9v-0.4
				c0-0.9-0.5-1.4-1.6-1.4c-0.6,0-1.2,0.2-1.9,0.7l-0.4-0.6c0.8-0.5,1.4-0.8,2.4-0.8c1.4,0,2.2,0.8,2.3,2l0,3.9L146.8,73.4
				L146.8,73.4z M146.8,71.4v-0.7H145c-1,0-1.5,0.3-1.5,1c0,0.6,0.5,1.1,1.3,1.1C145.8,72.7,146.6,72.2,146.8,71.4z"/>
			<path class="st0" d="M152.6,67.6v0.8c-1.2,0-2,0.7-2.1,1.9v3.1h-0.9v-5.8h0.9v1.3C150.9,68,151.6,67.6,152.6,67.6z"/>
			<path class="st0" d="M155.9,70.5l-1.2,1.3v1.7h-0.9v-8.2h0.9v5.4l3-3h1l-2.2,2.3l2.4,3.6h-1L155.9,70.5z"/>
			<path class="st0" d="M164.9,70.8h-4.8c0.1,1.2,1,1.9,2.1,1.9c0.7,0,1.4-0.3,1.8-0.7l0.5,0.5c-0.6,0.6-1.4,1-2.4,1
				c-1.7,0-2.9-1.2-2.9-2.9s1.2-2.9,2.9-3C164,67.6,164.9,68.8,164.9,70.8z M164.1,70.1c-0.1-1.1-0.8-1.9-1.9-1.9
				c-1.1,0-1.9,0.7-2,1.9H164.1z"/>
			<path class="st0" d="M169.4,73c-0.4,0.3-0.9,0.4-1.3,0.4c-0.9,0-1.5-0.5-1.5-1.7v-3.4h-0.8v-0.7h0.8v-1.5h0.9v1.5h1.9v0.7h-1.9
				v3.2c0,0.7,0.3,1,0.8,1c0.3,0,0.6-0.1,0.9-0.3L169.4,73z"/>
			<path class="st0" d="M171.7,65.9c0,0.3-0.2,0.6-0.6,0.6s-0.6-0.3-0.6-0.6s0.2-0.6,0.6-0.6S171.7,65.6,171.7,65.9z M171.5,67.6
				v5.8h-0.9v-5.8H171.5z"/>
			<path class="st0" d="M179,69.8v3.6h-0.9V70c0-1-0.6-1.7-1.6-1.7c-1.1,0-1.9,0.8-2,1.9v3.1h-0.9v-5.8h0.9v1.3
				c0.4-0.9,1.2-1.3,2.3-1.3C178.1,67.6,179,68.4,179,69.8z"/>
			<path class="st0" d="M186,67.6v5.2c0,1.7-1.2,2.8-2.9,2.8c-0.9,0-1.7-0.3-2.4-0.9l0.4-0.6c0.6,0.5,1.2,0.7,2,0.7
				c1.3,0,2.1-0.8,2.1-2v-0.9c-0.4,0.8-1.2,1.2-2.1,1.2c-1.6,0-2.7-1.2-2.7-2.8c0-1.6,1.1-2.8,2.6-2.8c1,0,1.8,0.4,2.2,1.2v-1.2
				L186,67.6L186,67.6z M185.1,70.4c0-1.2-0.8-2.1-2-2.1c-1.2,0-2,0.9-2,2.1c0,1.2,0.8,2.1,2,2.1C184.3,72.4,185.1,71.6,185.1,70.4z
				"/>
			<path class="st0" d="M194.9,73.4v-0.9c-0.5,0.6-1.2,0.9-2.1,0.9c-1.2,0-2-0.8-2-1.8c0-1,0.8-1.7,2.2-1.7h1.9v-0.4
				c0-0.9-0.5-1.4-1.6-1.4c-0.6,0-1.2,0.2-1.9,0.7l-0.4-0.6c0.8-0.5,1.4-0.8,2.4-0.8c1.4,0,2.2,0.8,2.3,2l0,3.9L194.9,73.4
				L194.9,73.4z M194.9,71.4v-0.7h-1.8c-1,0-1.5,0.3-1.5,1c0,0.6,0.5,1.1,1.3,1.1C193.9,72.7,194.7,72.2,194.9,71.4z"/>
			<path class="st0" d="M206,70.8h-4.8c0.1,1.2,1,1.9,2.1,1.9c0.7,0,1.4-0.3,1.8-0.7l0.5,0.5c-0.6,0.6-1.4,1-2.4,1
				c-1.7,0-2.9-1.2-2.9-2.9s1.2-2.9,2.9-3C205.2,67.6,206.1,68.8,206,70.8z M205.3,70.1c-0.1-1.1-0.8-1.9-1.9-1.9
				c-1.1,0-1.9,0.7-2,1.9H205.3z"/>
			<path class="st0" d="M213.8,68.3c-1.2,0-2.1,0.9-2.1,2.2c0,1.3,0.9,2.2,2.1,2.2c0.8,0,1.4-0.3,1.8-0.8l0.5,0.5
				c-0.5,0.6-1.3,1-2.3,1c-1.7,0-2.9-1.2-2.9-2.9c0-1.7,1.2-3,2.9-3c0.9,0,1.7,0.3,2.3,0.9l-0.5,0.6
				C215.1,68.6,214.5,68.3,213.8,68.3z"/>
			<path class="st0" d="M222.7,70.5c0,1.7-1.2,3-3,3c-1.7,0-3-1.2-3-3c0-1.7,1.2-2.9,3-2.9C221.5,67.6,222.7,68.8,222.7,70.5z
				 M217.7,70.5c0,1.3,0.9,2.2,2.1,2.2c1.2,0,2.1-0.9,2.1-2.2c0-1.3-0.9-2.2-2.1-2.2C218.5,68.3,217.7,69.2,217.7,70.5z"/>
			<path class="st0" d="M233.9,69.8v3.6H233V70c0-1.1-0.6-1.7-1.6-1.7c-1.2,0-1.9,0.9-1.9,2.2v2.9h-0.9V70c0-1.1-0.6-1.7-1.6-1.7
				c-1.2,0-1.9,0.9-1.9,2.2v2.9h-0.9v-5.8h0.9v1.3c0.4-0.9,1.2-1.3,2.2-1.3c1.1,0,1.9,0.6,2.1,1.5c0.4-1,1.2-1.5,2.3-1.5
				C233.1,67.6,233.9,68.4,233.9,69.8z"/>
			<path class="st0" d="M245.5,69.8v3.6h-0.9V70c0-1.1-0.6-1.7-1.6-1.7c-1.2,0-1.9,0.9-1.9,2.2v2.9h-0.9V70c0-1.1-0.6-1.7-1.6-1.7
				c-1.2,0-1.9,0.9-1.9,2.2v2.9h-0.9v-5.8h0.9v1.3c0.4-0.9,1.2-1.3,2.2-1.3c1.1,0,1.9,0.6,2.1,1.5c0.4-1,1.2-1.5,2.3-1.5
				C244.7,67.6,245.5,68.4,245.5,69.8z"/>
			<path class="st0" d="M252.4,70.8h-4.8c0.1,1.2,1,1.9,2.1,1.9c0.7,0,1.4-0.3,1.8-0.7l0.5,0.5c-0.6,0.6-1.4,1-2.4,1
				c-1.7,0-2.9-1.2-2.9-2.9s1.2-2.9,2.9-3C251.6,67.6,252.5,68.8,252.4,70.8z M251.6,70.1c-0.1-1.1-0.8-1.9-1.9-1.9
				c-1.1,0-1.9,0.7-2,1.9H251.6z"/>
			<path class="st0" d="M256.9,67.6v0.8c-1.2,0-2,0.7-2.1,1.9v3.1h-0.9v-5.8h0.9v1.3C255.2,68,255.9,67.6,256.9,67.6z"/>
			<path class="st0" d="M260.4,68.3c-1.2,0-2.1,0.9-2.1,2.2c0,1.3,0.9,2.2,2.1,2.2c0.8,0,1.4-0.3,1.8-0.8l0.5,0.5
				c-0.5,0.6-1.3,1-2.3,1c-1.7,0-2.9-1.2-2.9-2.9c0-1.7,1.2-3,2.9-3c0.9,0,1.7,0.3,2.3,0.9l-0.5,0.6
				C261.7,68.6,261.1,68.3,260.4,68.3z"/>
			<path class="st0" d="M269,70.8h-4.8c0.1,1.2,1,1.9,2.1,1.9c0.7,0,1.4-0.3,1.8-0.7l0.5,0.5c-0.5,0.6-1.4,1-2.4,1
				c-1.7,0-2.9-1.2-2.9-2.9s1.2-2.9,2.9-3C268.2,67.6,269.1,68.8,269,70.8z M268.2,70.1c-0.1-1.1-0.8-1.9-2-1.9
				c-1.1,0-1.9,0.7-2,1.9H268.2z"/>
			<path class="st0" d="M209.7,70.2v0.6h-2.6v-0.6H209.7z"/>
		</g>
	</g>
</g>
<g id="g" class="st4">
</g>
</svg>
