<svg width="170" height="52" viewBox="0 0 170 52" fill="none" xmlns="http://www.w3.org/2000/svg">
<g clip-path="url(#clip0_808_6062)">
<path d="M112.858 30.5547H113.831V27.7233H115.702C116.198 27.7233 116.65 27.6417 117.058 27.4847C117.466 27.3278 117.818 27.1018 118.107 26.8193C118.395 26.5368 118.621 26.2041 118.785 25.8211C118.948 25.4381 119.023 25.0238 119.023 24.5843C119.023 24.1449 118.942 23.7305 118.785 23.3476C118.621 22.9646 118.402 22.6382 118.107 22.3557C117.818 22.0732 117.466 21.8534 117.058 21.6965C116.65 21.5396 116.198 21.4579 115.702 21.4579H112.858V30.5609V30.5547ZM115.639 22.3494C116.016 22.3494 116.349 22.4059 116.644 22.5189C116.939 22.6319 117.19 22.7889 117.397 22.9898C117.604 23.1906 117.761 23.4292 117.868 23.6992C117.975 23.9754 118.031 24.2705 118.031 24.5843C118.031 24.8982 117.975 25.1933 117.868 25.4695C117.761 25.7395 117.604 25.978 117.397 26.1789C117.19 26.3798 116.945 26.5368 116.644 26.6498C116.349 26.7628 116.016 26.8193 115.639 26.8193H113.831V22.3494H115.639ZM122.225 30.5547H127.266V29.6192H123.198V21.4517H122.225V30.5547ZM130.21 30.5547H131.234L132.106 28.2507H136.256L137.141 30.5547H138.152L134.699 21.4517H133.651L130.21 30.5547ZM134.172 22.7575L135.905 27.3278H132.445L134.166 22.7575H134.172ZM145.033 30.4542C145.391 30.3098 145.698 30.1152 145.956 29.8766C146.213 29.6318 146.408 29.3556 146.552 29.0417C146.69 28.7278 146.765 28.4013 146.765 28.0623C146.765 27.648 146.69 27.2964 146.539 27.0139C146.389 26.7314 146.188 26.4928 145.943 26.2982C145.698 26.1036 145.422 25.9404 145.114 25.8085C144.807 25.6767 144.493 25.5574 144.179 25.4444C143.896 25.3503 143.626 25.2498 143.369 25.1494C143.105 25.0552 142.879 24.9422 142.678 24.8103C142.478 24.6785 142.314 24.5278 142.195 24.3458C142.076 24.1637 142.013 23.944 142.013 23.6803C142.013 23.4669 142.057 23.2723 142.151 23.0902C142.245 22.9081 142.371 22.7512 142.528 22.6131C142.691 22.4812 142.879 22.3745 143.099 22.2929C143.319 22.2176 143.557 22.1799 143.815 22.1799C144.279 22.1799 144.681 22.2678 145.02 22.4499C145.359 22.6256 145.642 22.9019 145.874 23.266L146.646 22.6947C146.483 22.4812 146.301 22.2866 146.106 22.1171C145.912 21.9476 145.698 21.8032 145.472 21.6839C145.24 21.5647 144.989 21.4768 144.719 21.414C144.449 21.3512 144.147 21.3198 143.827 21.3198C143.432 21.3198 143.061 21.3826 142.716 21.5019C142.377 21.6212 142.082 21.7907 141.831 22.0041C141.58 22.2176 141.385 22.4687 141.247 22.7512C141.109 23.04 141.04 23.3476 141.04 23.6803C141.04 24.0758 141.115 24.4148 141.26 24.6848C141.41 24.9547 141.599 25.187 141.843 25.3816C142.082 25.57 142.352 25.7332 142.653 25.8588C142.955 25.9843 143.262 26.1036 143.576 26.2103C143.859 26.3108 144.135 26.4049 144.405 26.5117C144.675 26.6121 144.907 26.7314 145.121 26.8695C145.328 27.0076 145.491 27.1709 145.617 27.3655C145.742 27.5601 145.805 27.7924 145.805 28.0749C145.805 28.326 145.755 28.5583 145.66 28.7654C145.566 28.9726 145.434 29.1547 145.265 29.3116C145.095 29.4686 144.888 29.5879 144.65 29.6695C144.411 29.7574 144.154 29.795 143.865 29.795C143.35 29.795 142.898 29.682 142.515 29.4435C142.132 29.2112 141.781 28.8596 141.473 28.3888L140.651 29.0103C140.833 29.274 141.034 29.5062 141.253 29.7134C141.473 29.9206 141.718 30.0901 141.982 30.2345C142.245 30.3789 142.534 30.4856 142.848 30.5609C143.162 30.6363 143.501 30.6739 143.865 30.6739C144.304 30.6739 144.7 30.5986 145.064 30.4542H145.033ZM150.137 30.5484H151.11V23.1404L154.525 27.8049L158.078 23.0211V30.5547H159.051V21.4517H158.116L154.55 26.2229L151.097 21.4517H150.137V30.5547V30.5484ZM162.084 30.5484H163.107L163.979 28.2444H168.135L169.021 30.5484H170.031L166.579 21.4454H165.53L162.09 30.5484H162.084ZM166.051 22.7512L167.784 27.3215H164.325L166.051 22.7512Z" fill="#333333"/>
<path d="M0 30.5484H1.0233L1.89593 28.2382H6.04564L6.93083 30.5484H7.94158L4.48872 21.4454H3.4403L0 30.5484ZM3.96765 22.7575L5.70036 27.3216H2.24122L3.96137 22.7575H3.96765ZM10.9738 30.5484H11.9469V23.1405L15.3621 27.805L18.9217 23.0212V30.5547H19.8948V21.4517H18.9593L15.3935 26.2229L11.9406 21.4517H10.9801V30.5547L10.9738 30.5484ZM23.6992 30.5484H27.2085C27.6292 30.5484 28.0184 30.4857 28.37 30.3664C28.7215 30.2471 29.0229 30.0776 29.274 29.8516C29.5251 29.6319 29.7197 29.3619 29.8578 29.048C29.9959 28.7341 30.065 28.3763 30.065 27.987C30.065 27.466 29.9457 27.0202 29.7072 26.6436C29.4686 26.2669 29.1233 25.9907 28.6713 25.8086C29.048 25.6203 29.3305 25.3503 29.5251 25.0113C29.7197 24.6723 29.8202 24.2831 29.8202 23.8499C29.8202 23.4858 29.7511 23.153 29.6193 22.858C29.4874 22.5629 29.2928 22.3118 29.048 22.0983C28.8031 21.8912 28.5081 21.7279 28.1628 21.6149C27.8175 21.5019 27.4408 21.4454 27.0202 21.4454H23.6992V30.5484ZM27.1709 26.3108C27.4848 26.3108 27.761 26.3485 27.9933 26.4301C28.2318 26.5117 28.4265 26.6247 28.5897 26.7691C28.7529 26.9135 28.8722 27.0893 28.9538 27.2965C29.0354 27.5036 29.0731 27.7296 29.0731 27.9745C29.0731 28.2193 29.0291 28.4453 28.9412 28.6525C28.8534 28.8597 28.7215 29.0354 28.5583 29.1861C28.3951 29.3368 28.1942 29.4498 27.9619 29.5377C27.7296 29.6256 27.4722 29.6632 27.1897 29.6632H24.6723V26.3108H27.1709ZM27.0076 22.3306C27.2839 22.3306 27.535 22.3683 27.761 22.4436C27.987 22.519 28.1753 22.6257 28.3386 22.7575C28.4955 22.8894 28.6211 23.0526 28.7027 23.2409C28.7906 23.4293 28.8282 23.6302 28.8282 23.8562C28.8282 24.0822 28.7906 24.2831 28.7215 24.4714C28.6462 24.6597 28.5395 24.823 28.3951 24.9674C28.2507 25.1055 28.0749 25.2185 27.8614 25.2938C27.648 25.3754 27.4032 25.4131 27.1269 25.4131H24.6785V22.3306H27.0076ZM33.5492 30.5484H39.0801V29.613H34.5223V26.4489H39.0801V25.5324H34.5223V22.3808H39.0801V21.4517H33.5492V30.5547V30.5484ZM42.5518 30.5484H43.5249V27.2525H45.9733L47.8817 30.5484H49.0118L46.9401 27.0453C47.254 26.9449 47.5302 26.8005 47.7813 26.6247C48.0261 26.4427 48.2396 26.2355 48.4091 25.9969C48.5786 25.7584 48.7104 25.501 48.8046 25.2185C48.8988 24.936 48.9427 24.6409 48.9427 24.3396C48.9427 23.9378 48.8674 23.5611 48.7104 23.2095C48.5535 22.858 48.34 22.5503 48.0638 22.293C47.7876 22.0293 47.4611 21.8284 47.0845 21.6777C46.7078 21.527 46.2934 21.4517 45.8477 21.4517H42.5518V30.5547V30.5484ZM45.7724 22.3432C46.1114 22.3432 46.419 22.3934 46.6889 22.4938C46.9589 22.5943 47.1912 22.7324 47.3795 22.9145C47.5679 23.0903 47.7122 23.3037 47.8127 23.5485C47.9131 23.7934 47.9634 24.0571 47.9634 24.3458C47.9634 24.6032 47.9131 24.8543 47.8127 25.0992C47.7122 25.344 47.5679 25.5638 47.3795 25.7521C47.1912 25.9404 46.9589 26.0974 46.6827 26.2167C46.4064 26.3359 46.0988 26.3924 45.7598 26.3924H43.5249V22.3495H45.7724V22.3432Z" fill="#333333"/>
<path d="M80.7592 51.7364C94.9725 51.7364 106.492 40.2164 106.492 26.0032C106.492 11.7899 94.9725 0.263672 80.7592 0.263672C66.546 0.263672 55.026 11.7837 55.026 25.9969C55.026 40.2101 66.546 51.7301 80.7592 51.7301" fill="#F5A900"/>
<path d="M98.5572 36.4936C98.1052 37.272 97.3204 37.611 96.7429 37.7617C95.6631 38.0379 94.4326 37.881 93.5286 37.3474C89.9188 35.2066 88.4686 31.5466 88.0605 30.2784C89.3789 30.0336 93.3151 29.5565 96.8559 31.6533C98.3814 32.5573 99.4801 34.9178 98.5572 36.4936ZM83.6283 30.9564C82.5736 31.5654 81.6068 32.3062 80.7467 33.16C79.8929 32.2999 78.9261 31.5591 77.8777 30.9439C76.8419 30.3412 75.7307 29.8704 74.5755 29.5502C74.8769 28.3888 75.0338 27.196 75.0338 25.9969C75.0338 24.7915 74.8769 23.5862 74.5692 22.4247C75.7307 22.1046 76.8481 21.64 77.8965 21.0373C78.9512 20.4284 79.918 19.6876 80.7781 18.8338C81.6319 19.6938 82.5987 20.4346 83.6471 21.0499C84.683 21.6526 85.7942 22.1234 86.9493 22.4436C86.648 23.605 86.491 24.7978 86.491 25.9969C86.491 27.196 86.648 28.4013 86.9556 29.569C85.7942 29.8829 84.6767 30.3475 83.6283 30.9564ZM80.753 46.6575H80.7467C79.849 46.6575 79.1584 46.1553 78.7378 45.7347C77.9468 44.9499 77.4634 43.8074 77.4634 42.7527C77.4759 38.559 79.8929 35.4514 80.7781 34.4533C81.657 35.464 84.0677 38.6155 84.0552 42.7276C84.0552 44.4979 82.5736 46.645 80.7467 46.6513L80.753 46.6575ZM67.9146 37.2155C66.3766 38.1007 63.7775 37.8936 62.8609 36.3115C62.4089 35.5331 62.4968 34.6855 62.6537 34.108C62.9425 33.0344 63.6896 32.0362 64.5999 31.5152C66.7344 30.291 68.9631 29.9708 70.702 29.9708C71.9262 29.9708 72.9056 30.1278 73.4455 30.2408C73.006 31.5089 71.4742 35.1752 67.9209 37.2155H67.9146ZM64.6752 20.3405C63.1497 19.4364 62.0511 17.0759 62.9739 15.5002C63.4259 14.7217 64.2107 14.3827 64.7882 14.232C65.1398 14.1442 65.5039 14.1002 65.8743 14.1002C66.6339 14.1002 67.3936 14.2885 68.0025 14.6527C71.6123 16.7934 73.0625 20.4535 73.4706 21.7216C72.1522 21.9665 68.216 22.4436 64.6752 20.3467V20.3405ZM80.7781 5.3425H80.7844C81.6821 5.3425 82.3727 5.84473 82.7933 6.26535C83.5843 7.05637 84.0677 8.19268 84.0677 9.24737C84.0552 13.441 81.6382 16.5486 80.753 17.5405C79.8741 16.5298 77.4634 13.3657 77.4759 9.2662C77.4759 7.48955 78.9575 5.34878 80.7844 5.3425H80.7781ZM93.6165 14.7782C95.1546 13.893 97.7536 14.1002 98.6702 15.6822C99.1222 16.4607 99.0343 17.3082 98.8774 17.8858C98.5886 18.9593 97.8415 19.9575 96.9312 20.4786C93.29 22.5691 89.3914 22.023 88.0856 21.7593C88.5251 20.4911 90.0443 16.8311 93.6165 14.7845V14.7782ZM97.3267 30.8748C93.4532 28.5771 89.247 29.1233 87.8533 29.3932C87.5583 28.2883 87.4076 27.152 87.4076 26.0032C87.4076 24.8543 87.5583 23.7368 87.8471 22.6382C88.4246 22.7638 89.4919 22.9458 90.8354 22.9458C92.6873 22.9458 95.0667 22.5942 97.3832 21.2696C98.4944 20.6293 99.4047 19.4239 99.7563 18.1244C100.039 17.0759 99.9321 16.0464 99.4549 15.2302C98.2684 13.1836 95.0981 12.8886 93.1645 13.9935C89.2031 16.2661 87.6148 20.2714 87.1942 21.5647C86.1206 21.2633 85.0848 20.8364 84.118 20.2714C83.1261 19.6938 82.222 18.9844 81.4185 18.1746C82.3853 17.1073 84.9655 13.8303 84.978 9.25365C84.978 7.96667 84.3942 6.57925 83.44 5.625C82.674 4.8591 81.7449 4.43848 80.7844 4.43848C78.4176 4.44475 76.5782 7.04382 76.5719 9.27248C76.5593 13.8114 79.2024 17.1764 80.1252 18.2123C79.3279 19.0033 78.4364 19.6938 77.4571 20.2589C76.4903 20.8176 75.4482 21.2445 74.3746 21.5396C73.9728 20.2212 72.4724 16.2473 68.4734 13.8805C67.3685 13.2276 65.8743 13.0267 64.5685 13.3657C63.5138 13.6356 62.6726 14.2383 62.1955 15.0545C61.0026 17.0948 62.3022 20.0015 64.2169 21.1378C66.5586 22.5252 69.0258 22.8768 70.9155 22.8768C72.1522 22.8768 73.1379 22.7261 73.6903 22.6194C73.9854 23.7243 74.1361 24.8606 74.1361 26.0094C74.1361 27.1457 73.9854 28.2758 73.6966 29.3744C72.3155 29.0731 68.1595 28.4515 64.1604 30.743C63.043 31.3833 62.1389 32.5887 61.7874 33.8882C61.5049 34.9367 61.6116 35.9662 62.0887 36.7824C62.8295 38.0568 64.3362 38.6532 65.8367 38.6532C66.747 38.6532 67.651 38.4335 68.3792 38.0191C72.3406 35.7465 73.9289 31.7412 74.3495 30.4479C75.423 30.7493 76.4589 31.1762 77.4257 31.7412C78.4176 32.3188 79.3216 33.0282 80.1252 33.8443C79.1584 34.9115 76.5782 38.1886 76.5656 42.7652C76.5656 44.0522 77.1495 45.4396 78.1037 46.3876C78.8696 47.1535 79.8113 47.5741 80.753 47.5741H80.7593C83.1261 47.5741 84.9655 44.9751 84.9718 42.7401C84.9843 38.2012 82.3413 34.8362 81.4185 33.8003C82.2158 33.0093 83.1072 32.3188 84.0866 31.7537C85.0534 31.195 86.0955 30.7681 87.169 30.473C87.5708 31.7914 89.0713 35.7653 93.0703 38.1321C93.8174 38.5779 94.7465 38.8101 95.6694 38.8101C96.1088 38.8101 96.5545 38.7599 96.9752 38.6469C98.0299 38.377 98.8711 37.7743 99.3482 36.9581C100.541 34.9178 99.2415 32.0111 97.3267 30.8748Z" fill="white"/>
</g>
<defs>
<clipPath id="clip0_808_6062">
<rect width="170" height="51.4727" fill="white" transform="translate(0 0.263672)"/>
</clipPath>
</defs>
</svg>
