<svg id="Vrstva_1" data-name="Vrstva 1" xmlns="http://www.w3.org/2000/svg" viewBox="0 0 1325.91 253.64"><defs><style>.cls-1{fill:#78c004;}.cls-2{fill:#00c5e5;}</style></defs><title>Vector Smart Object</title><path class="cls-1" d="M1505.59,339.15H256.86c-21.31,0-38.59,16.82-38.59,39.59V554.19a38.59,38.59,0,0,0,38.59,38.59H1505.59a38.59,38.59,0,0,0,38.59-38.59V378.74C1544.18,356.9,1527.18,339.15,1505.59,339.15Zm17.64,215.62c0,8.57-7.71,17-16.9,17H256.12c-9.11,0-16.91-8.16-16.91-16.92V377.06a17.51,17.51,0,0,1,17.91-16.91H1505.33a17.7,17.7,0,0,1,17.9,17.91Z" transform="translate(-218.27 -339.15)"/><path class="cls-2" d="M922.74,461.29H894.43L898.8,451c1.37-3.57-2.64-6.5-9.1-6.5s-12.94,2.93-14.35,6.5L871,461.28H838.62a22.85,22.85,0,0,0-3.71.34l18.37-43.11c1.37-3.56-2.64-6.49-9.1-6.49s-12.94,2.93-14.35,6.49l-22.44,53.28h.19l-4.61,11h59l-1.68,4h.15l-1.17,2.91h.13l-10.13,25c-1.39,3.55,2.63,6.49,9.1,6.49s13-2.94,14.36-6.49l10.07-25h0l2.95-7.2h28.49c6.47,0,12.93-2.94,14.33-6.49l3.25-8.17c1.53-3.55-2.62-6.48-9.11-6.48" transform="translate(-218.27 -339.15)"/><path class="cls-2" d="M1444.55,410.52c-6.52,0-13,3-14.43,6.52l-14.73,36.61h-60.07c-9.63,0-11.5-.94-9.16-6.53l12.1-30.08c1.4-3.56-2.62-6.52-9.16-6.52s-13,3-14.42,6.52l-17.53,43.43c-4,10.09,1.39,14.42,17.06,14.42h72.49l-7.14,17.7c-2.17,5.58-4.8,6.52-14.44,6.52h-71.85c-6.51,0-12.89,2.94-14.43,6.53l-3.26,8.19c-1.39,3.58,2.64,6.52,9.16,6.52H1389c15.69,0,24.7-4.33,28.86-14.42L1453.7,417c1.41-3.56-2.64-6.52-9.15-6.52" transform="translate(-218.27 -339.15)"/><path class="cls-2" d="M1308.63,425.53c4.18-10-1.39-14.38-17-14.38l-77.93,0-.59,0-50.86,0c-6.48,0-13,3-14.39,6.5l-.11.27-.08.14-30.46,75.31c-2.17,5.58-4.8,6.5-14.39,6.5h-17.46c-9.59,0-11.31-.92-9.15-6.5L1106.69,418c1.4-3.57-2.63-6.49-9.12-6.49s-13,2.92-14.38,6.49l-30.47,75.31c-2.19,5.58-4.81,6.5-14.4,6.5h-17.5c-9.57,0-11.28-.92-9.1-6.5L1042.2,418c1.38-3.57-2.64-6.49-9.13-6.49s-13,2.92-14.39,6.49l-35.74,88.6c-4.18,10.08,1.4,14.41,17,14.41h106.71c15.63,0,24.57-4.33,28.77-14.41l30-74.3,33.39,0,20.46,0h1.5v-.05l29.49,0,20.47,0c9.61,0,11.31.91,9.13,6.48l-5.78,14.28-70.78-.31c-15.62,0-24.57,4.19-28.77,14.24l-15.54,39c-4.17,10,1.39,14.38,17,14.38l71.39.21c11.84,0,19.84-2.5,24.84-8.08a22.07,22.07,0,0,0,4.08-6.51l-.06-.05ZM1257.9,493a12.61,12.61,0,0,1-1.73,3.23c-2.1,2.54-5.38,3.05-12.49,3.05h-46.8c-9.6,0-11.3-.94-9.14-6.49l5-12.43c2.18-5.56,4.8-6.48,14.38-6.48l58.53-.07Z" transform="translate(-218.27 -339.15)"/><path class="cls-2" d="M719.91,410.74h-94L584.21,514.06c-1.41,3.59,2.64,6.53,9.14,6.53s13-2.94,14.44-6.53l15.67-38.92h58.28c9.6,0,11.32.92,9.15,6.49l-3.59,8.86-9.71,23.69c-1.39,3.57,2.63,6.48,9.11,6.48s13-2.91,14.35-6.48l14.14-34.42c.94-2.63,2-5.57,2-8.61A16,16,0,0,0,707.15,456l-1.91-.82a18.28,18.28,0,0,0-3-.93l.26-.62,2.48,0,4-.08,1.85-.07a25,25,0,0,0,8.4-1.4l1.9-.83a15.69,15.69,0,0,0,9.14-9.51l1.54-3.76,1.56-3.87,3.61-8.93c4.19-10.09-1.39-14.44-17.07-14.44M708.08,438.5l-3.57,8.85c-2.32,5.58-4.8,6.52-14.43,6.52H632.14L641,432h58c9.6,0,11.31.94,9.14,6.5" transform="translate(-218.27 -339.15)"/><path class="cls-2" d="M580.87,411.15,380.4,411h-7.83c-15.52,0-24.42,4.32-28.6,14.32l-32.31,80.28c-4.14,10,1.41,14.3,16.94,14.3h4.92l0,.06h74.62c6.64,0,13.26-3,14.69-6.62l3.31-8.37c1.21-2.82-1.06-5.24-5.18-6.2H346c-6.58-.27-7.62-1.58-5.74-6.4l21.83-53.82c2.17-5.54,4.76-6.44,14.31-6.44l183.55.21c9.6,0,11.3.91,9.13,6.48l-5.78,14.28-70.77-.31c-15.63,0-24.59,4.19-28.79,14.24l-15.54,39c-4.16,10,1.39,14.38,17,14.38l71.38.21c1.17,0,2.27,0,3.38-.1h8.17c6.47,0,12.8-2.92,14.33-6.47l3.25-8.16.24-1.14,31.87-79.27c4.19-10-1.38-14.38-17-14.38M547.15,493a12,12,0,0,1-1.73,3.23c-2.11,2.54-5.39,3.05-12.48,3.05H486.12c-9.59,0-11.29-.94-9.13-6.49l5-12.43c2.18-5.56,4.81-6.48,14.4-6.48l58.52-.07Z" transform="translate(-218.27 -339.15)"/></svg>
