<svg xmlns="http://www.w3.org/2000/svg" width="420.993" height="40.236" viewBox="0 0 420.993 40.236">
  <g id="Group_1098" data-name="Group 1098" transform="translate(-525.181 -224.638)">
    <path id="Path_4272" data-name="Path 4272" d="M550.647,264.874c2.327,0,4.659-1.057,5.157-2.319l1.166-2.931c.552-1.275-.946-2.323-3.273-2.323H536.66l12.976-30.339c.5-1.269-.941-2.323-3.273-2.323s-4.659,1.055-5.157,2.323l-16.024,37.912h25.466Z" transform="translate(0)" fill="#e41f13"/>
    <path id="Path_4273" data-name="Path 4273" d="M652.974,256.736h5.065c3.438,0,4.385-.33,5.158-2.321l7.876-19.34c.776-1.992.165-2.323-3.271-2.323H646.844l-10.687,26.415c-1.5,3.6-4.715,5.141-10.317,5.141H600.153c-5.6,0-7.6-1.545-6.1-5.141l10.684-26.415H566.951c-3.44,0-4.379.332-5.157,2.323l-7.876,19.34c-.777,1.992-.165,2.321,3.277,2.321h16.811c3.438,0,4.381-.33,5.158-2.321l5.822-14.261c.5-1.275,2.83-2.321,5.158-2.321s3.769,1.046,3.271,2.321l-7.705,19.013c-1.5,3.6-4.717,5.141-10.315,5.141H549.708c-5.6,0-7.6-1.545-6.1-5.141l11.647-28.848c1.5-3.592,4.715-5.137,10.311-5.137h45.426c.264-.025.768,0,1.034,0,2.327,0,3.769,1.048,3.271,2.319l-10.927,26.914c-.775,1.992-.165,2.321,3.273,2.321h16.815c2.873,0,4-.245,4.744-1.479l12.191-30.075h33.9c5.6,0,7.6,1.545,6.1,5.137l-11.645,28.848c-1.5,3.6-4.713,5.141-10.313,5.141H644.908c-2.325,0-3.821-1.05-3.265-2.319l1.162-2.931c.5-1.273,2.83-2.321,5.153-2.321Z" transform="translate(19.015 0.564)" fill="#e41f13"/>
    <path id="Path_4274" data-name="Path 4274" d="M656.415,225.169H643.525l.008.01H626.42c-2.325,0-4.657,1.05-5.155,2.321l-1.164,2.931c-.554,1.271.941,2.321,3.271,2.321h26.094l-.006-.008c2.966.037,3.479.432,2.74,2.317l-2.41,6.033c-7.009-.045-25.037-.13-25.037-.13-5.6,0-8.815,1.52-10.315,5.112l-5.571,13.089c-1.5,3.6.5,5.141,6.1,5.141h25.651c5.6,0,8.82-1.545,10.315-5.141l11.583-28.858c1.5-3.594-.5-5.139-6.1-5.139m-17.18,31.566H622.449c-3.436,0-4.047-.332-3.269-2.321l1.8-3.582c.777-1.992,1.724-2.325,5.158-2.325l20.654-.023-2.4,5.93c-.776,1.99-1.72,2.321-5.155,2.321" transform="translate(88.169 0.563)" fill="#e41f13"/>
    <path id="Path_4275" data-name="Path 4275" d="M791.082,225.227l-72.607-.012c-.249,0-.5.021-.737.037-.167-.006-.326-.025-.5-.025-2.315,0-4.632,1.044-5.13,2.307l-10.875,26.79c-.768,1.977-1.712,2.313-5.137,2.313H679.361c-3.421,0-4.028-.336-3.254-2.313l10.865-26.79c.5-1.263-.933-2.307-3.252-2.307s-4.634,1.044-5.131,2.307l-12.751,31.523c-1.493,3.574.492,5.114,6.074,5.114h25.565c5.576,0,8.778-1.541,10.265-5.114l10.646-26.308h8.974l-.01.008h4.723l-11.814,29.1c-.5,1.267.939,2.313,3.254,2.313s4.636-1.046,5.135-2.313L740.5,232.764H783.63c3.423,0,4.027.329,3.256,2.309l-7.944,19.252c-.768,1.977-1.711,2.313-5.131,2.313H757.077c-3.219,0-3.93-.313-3.367-1.99l5.866-14.517c.494-1.267-.937-2.309-3.263-2.309s-4.636,1.042-5.135,2.309l-7.508,18.6h.012l-.128.323c-1.491,3.574.494,5.114,6.072,5.114H775.3c5.58,0,8.774-1.541,10.263-5.114l11.6-28.716c1.487-3.574-.5-5.114-6.074-5.114" transform="translate(148.542 0.611)" fill="#949494"/>
    <path id="Path_4276" data-name="Path 4276" d="M695,230.3c1.489-3.572-.5-5.118-6.07-5.118l-27.8-.014c-2.313,0-4.639,1.05-5.135,2.309l-1.157,2.914c-.552,1.269.941,2.313,3.254,2.313l16.08.01,7.306.01c3.427,0,4.035.328,3.26,2.309l-2.068,5.079L657.417,240c-5.569,0-8.77,1.493-10.266,5.063L641.6,258.94c-1.491,3.58.5,5.112,6.07,5.112l25.472.076c4.229,0,7.081-.886,8.867-2.869a7.819,7.819,0,0,0,1.458-2.319l-.025-.014Zm-43.138,23.909,1.8-4.418c.779-1.977,1.714-2.307,5.137-2.307l20.879-.021-2.776,6.822a4.476,4.476,0,0,1-.618,1.147c-.752.9-1.92,1.085-4.457,1.085h-16.7c-3.425,0-4.033-.334-3.26-2.309" transform="translate(122.865 0.564)" fill="#949494"/>
  </g>
</svg>
