<svg xmlns="http://www.w3.org/2000/svg" width="226" height="40.236" viewBox="0 0 226 40.236">
  <g id="Group_389" data-name="Group 389" transform="translate(-428.388 -62.711)">
    <path id="Path_3489" data-name="Path 3489" d="M453.857,102.947c2.328,0,4.658-1.053,5.158-2.319l1.164-2.931c.554-1.271-.945-2.319-3.272-2.319H439.869l12.976-30.344c.5-1.268-.942-2.322-3.273-2.322s-4.658,1.053-5.158,2.322l-16.026,37.914h25.469Z" transform="translate(0 0)" fill="#e41f13"/>
    <path id="Path_3490" data-name="Path 3490" d="M566.914,95.131h5.066c3.437,0,4.383-.333,5.156-2.323l7.878-19.343c.775-1.992.162-2.322-3.272-2.322h-20.96L550.1,97.561c-1.5,3.593-4.714,5.14-10.318,5.14H514.093c-5.6,0-7.6-1.547-6.1-5.14l10.685-26.416h-37.79c-3.439,0-4.379.33-5.156,2.32l-7.876,19.343c-.776,1.99-.165,2.323,3.276,2.323h16.813c3.439,0,4.383-.333,5.159-2.323l5.82-14.263c.5-1.274,2.831-2.322,5.159-2.322s3.771,1.048,3.273,2.322l-7.708,19.016c-1.5,3.593-4.717,5.14-10.315,5.14H463.643c-5.6,0-7.6-1.547-6.1-5.14l11.647-28.849c1.494-3.593,4.714-5.14,10.313-5.14h45.427c.263-.023.768,0,1.034,0,2.328,0,3.769,1.049,3.271,2.319,0,0-9.012,19.607-10.925,26.917s-.168,2.323,3.272,2.323H538.4c2.872,0,4-.245,4.744-1.481L555.33,63.572h33.9c5.6,0,7.6,1.547,6.1,5.14L583.681,97.561c-1.5,3.593-4.712,5.14-10.313,5.14H558.848c-2.326,0-3.82-1.049-3.265-2.319l1.161-2.929c.5-1.274,2.831-2.322,5.155-2.322Z" transform="translate(8.29 0.246)" fill="#e41f13"/>
    <path id="Path_3491" data-name="Path 3491" d="M609.368,63.56H596.477l.009.01H579.373c-2.327,0-4.658,1.051-5.158,2.32l-1.163,2.93c-.556,1.271.941,2.323,3.27,2.323h26.1l-.005-.009c2.965.037,3.478.434,2.738,2.317l-2.409,6.033c-7.01-.043-25.038-.128-25.038-.128-5.6,0-8.816,1.52-10.315,5.111L561.816,97.56c-1.5,3.594.5,5.14,6.1,5.14h25.653c5.6,0,8.821-1.546,10.314-5.14L615.471,68.7c1.5-3.593-.5-5.138-6.1-5.138M592.187,95.128H575.4c-3.437,0-4.047-.333-3.269-2.324l1.8-3.581c.779-1.99,1.724-2.323,5.159-2.323l20.655-.024-2.4,5.929c-.777,1.992-1.72,2.324-5.156,2.324" transform="translate(38.437 0.245)" fill="#e41f13"/>
  </g>
</svg>
